<svg xmlns="http://www.w3.org/2000/svg" width="32" height="32" viewBox="0 0 32 32">
  <defs>
    <linearGradient id="ghostGradient" x1="0%" y1="0%" x2="0%" y2="100%">
      <stop offset="0%" style="stop-color:#e0e7ff;stop-opacity:1" />
      <stop offset="100%" style="stop-color:#c7d2fe;stop-opacity:1" />
    </linearGradient>
  </defs>
  
  <!-- Ghost body -->
  <path d="M16 4 C22 4 26 8 26 14 L26 24 C26 25 25 26 24 26 L22 26 L20 24 L18 26 L16 24 L14 26 L12 24 L10 26 L8 26 C7 26 6 25 6 24 L6 14 C6 8 10 4 16 4 Z" 
        fill="url(#ghostGradient)" 
        stroke="#6366f1" 
        stroke-width="0.5"/>
  
  <!-- Left eye -->
  <circle cx="12" cy="12" r="2" fill="#1e293b"/>
  
  <!-- Right eye -->
  <circle cx="20" cy="12" r="2" fill="#1e293b"/>
  
  <!-- Mouth -->
  <ellipse cx="16" cy="17" rx="2" ry="1.5" fill="#1e293b"/>
</svg> 